<?xml version="1.0" encoding="UTF-8" standalone="no"?>
<svg
   xmlns:dc="http://purl.org/dc/elements/1.1/"
   xmlns:cc="http://creativecommons.org/ns#"
   xmlns:rdf="http://www.w3.org/1999/02/22-rdf-syntax-ns#"
   xmlns:svg="http://www.w3.org/2000/svg"
   xmlns="http://www.w3.org/2000/svg"
   viewBox="0 0 100.00011 96.553559"
   height="96.553558"
   width="100.00011"
   version="1.1"
   id="svg3336">
  <metadata
     id="metadata3342">
    <rdf:RDF>
      <cc:Work
         rdf:about="">
        <dc:format>image/svg+xml</dc:format>
        <dc:type
           rdf:resource="http://purl.org/dc/dcmitype/StillImage" />
        <dc:title></dc:title>
      </cc:Work>
    </rdf:RDF>
  </metadata>
  <defs
     id="defs3340" />
  <g
     transform="translate(-82.731147,-85.08311)"
     id="layer1">
    <path
       id="brownborder"
       d="m 126.83805,181.57925 c -1.64572,-0.1434 -3.89966,-0.4399 -6.32887,-0.8326 -1.54611,-0.25 -3.16654,-0.4573 -3.60097,-0.4608 -0.43443,0 -2.05932,0.1494 -3.61086,0.3397 -7.70539,0.9449 -13.438456,1.1111 -17.946707,0.5201 -6.658208,-0.8728 -10.321738,-3.2819 -11.234775,-7.3879 -0.0621,-0.2792 -0.1562,-2.1834 -0.209106,-4.2314 -0.08264,-3.1991 -0.151956,-4.1688 -0.492002,-6.8832 -0.686585,-5.4806 -0.698312,-5.692 -0.679104,-12.2431 0.03398,-11.5873 0.33922,-15.9592 2.170483,-31.0871 0.923795,-7.6315 1.252009,-11.8419 1.252885,-16.0726 4.51e-4,-2.1684 -0.04245,-2.8162 -0.298928,-4.513501 -0.191204,-1.2654 -0.303376,-2.4916 -0.310307,-3.3923 -0.01395,-1.8122 0.327166,-6.0624 0.556969,-6.9396 0.179173,-0.6839 0.593,-1.5029 0.86437,-1.7107 0.08115,-0.062 0.782273,-0.2996 1.558042,-0.5278 1.113859,-0.3276 1.601673,-0.4146 2.319582,-0.414 1.856407,0 9.652478,0.596 14.883488,1.1346 1.17647,0.1212 2.54747,0.2201 3.04665,0.2198 1.33597,-8e-4 3.53681,-0.3577 6.53317,-1.0594 1.4603,-0.342 3.20387,-0.6817 3.87462,-0.7549 1.43714,-0.1568 3.63449,-0.09 7.59495,0.2325 1.52051,0.1236 3.72933,0.2258 4.9085,0.227 2.35643,0 3.84285,0.1755 6.77099,0.7881 0.93057,0.1947 2.52977,0.5289 3.55379,0.7428 2.72037,0.5682 4.77799,0.8399 6.3601,0.8399 1.69744,0 2.30254,-0.1041 4.24677,-0.731 4.08173,-1.316 10.01641,-2.1611 16.02316,-2.2815 4.18939,-0.084 6.49158,0.1334 8.20679,0.7752 1.39569,0.5222 2.90213,2.1343 3.43437,3.6752 0.23602,0.6833 0.26265,0.9559 0.25637,2.6244 -0.006,1.6963 -0.0461,2.0574 -0.44674,4.0622 l -0.43975,2.2003 0.004,3.723701 c 0.002,2.3536 0.0745,4.6994 0.19589,6.3754 0.10563,1.4585 0.24072,4.4148 0.30021,6.5697 0.19503,7.0652 0.49406,9.7277 1.91715,17.0701 0.96304,4.9688 0.90014,7.1503 -0.39524,13.71 -1.45487,7.3672 -1.46682,7.9535 -0.28061,13.7642 0.36484,1.7872 0.72326,3.801 0.79649,4.475 0.15343,1.412 0.0839,3.1111 -0.17718,4.3286 -0.20343,0.9488 -0.38412,3.2051 -0.39309,4.9085 -0.0112,2.1216 -0.47758,3.4799 -1.52299,4.4353 -0.78886,0.721 -1.45474,1.1048 -2.33643,1.3465 -1.16564,0.3197 -4.04717,0.2526 -8.55491,-0.199 -3.187,-0.3192 -4.24043,-0.3795 -6.71393,-0.3844 -3.24013,-0.01 -4.02325,0.069 -8.85787,0.8573 -2.52949,0.4122 -3.03321,0.4585 -5.92405,0.5447 -4.02727,0.12 -8.66395,0.5628 -12.35589,1.1801 -0.89989,0.1504 -2.12924,0.3274 -2.7319,0.3933 -1.00186,0.1096 -4.70566,0.1368 -5.78745,0.043 z"
       style="fill:#cfac87" />
  </g>
</svg>
